<svg class="rich-terminal" viewBox="0 0 677 1074.8" xmlns="http://www.w3.org/2000/svg">
    <!-- Generated with Rich https://www.textualize.io -->
    <style>

    @font-face {
        font-family: "Fira Code";
        src: local("FiraCode-Regular"),
                url("https://cdnjs.cloudflare.com/ajax/libs/firacode/6.2.0/woff2/FiraCode-Regular.woff2") format("woff2"),
                url("https://cdnjs.cloudflare.com/ajax/libs/firacode/6.2.0/woff/FiraCode-Regular.woff") format("woff");
        font-style: normal;
        font-weight: 400;
    }
    @font-face {
        font-family: "Fira Code";
        src: local("FiraCode-Bold"),
                url("https://cdnjs.cloudflare.com/ajax/libs/firacode/6.2.0/woff2/FiraCode-Bold.woff2") format("woff2"),
                url("https://cdnjs.cloudflare.com/ajax/libs/firacode/6.2.0/woff/FiraCode-Bold.woff") format("woff");
        font-style: bold;
        font-weight: 700;
    }

    .terminal-688787121-matrix {
        font-family: Fira Code, monospace;
        font-size: 20px;
        line-height: 24.4px;
        font-variant-east-asian: full-width;
    }

    .terminal-688787121-title {
        font-size: 18px;
        font-weight: bold;
        font-family: arial;
    }

    .terminal-688787121-r1 { fill: #398280;font-weight: bold }
.terminal-688787121-r2 { fill: #9e9e9e }
.terminal-688787121-r3 { fill: #c5c8c6 }
.terminal-688787121-r4 { fill: #d97757 }
.terminal-688787121-r5 { fill: #d97757;font-weight: bold }
.terminal-688787121-r6 { fill: #8b949e }
.terminal-688787121-r7 { fill: #0d1117;font-weight: bold }
.terminal-688787121-r8 { fill: #b2b546;font-weight: bold }
.terminal-688787121-r9 { fill: #79c0ff }
.terminal-688787121-r10 { fill: #ea9b3f;font-weight: bold }
.terminal-688787121-r11 { fill: #10a37f }
.terminal-688787121-r12 { fill: #10a37f;font-weight: bold }
.terminal-688787121-r13 { fill: #60b84d;font-weight: bold }
.terminal-688787121-r14 { fill: #f56445;font-weight: bold }
.terminal-688787121-r15 { fill: #56d4dd;font-weight: bold }
.terminal-688787121-r16 { fill: #b392f0 }
.terminal-688787121-r17 { fill: #b392f0;font-weight: bold }
.terminal-688787121-r18 { fill: #9cb648;font-weight: bold }
.terminal-688787121-r19 { fill: #3d444d }
.terminal-688787121-r20 { fill: #fdfdc5;font-weight: bold;text-decoration: underline; }
.terminal-688787121-r21 { fill: #98729f }
.terminal-688787121-r22 { fill: #98729f;font-weight: bold }
.terminal-688787121-r23 { fill: #1984e9;font-weight: bold }
.terminal-688787121-r24 { fill: #fdfdc5 }
.terminal-688787121-r25 { fill: #d7d700 }
.terminal-688787121-r26 { fill: #68a0b3 }
.terminal-688787121-r27 { fill: #00d700 }
.terminal-688787121-r28 { fill: #00d700;font-weight: bold }
.terminal-688787121-r29 { fill: #ff0000;font-weight: bold }
.terminal-688787121-r30 { fill: #ff0000 }
    </style>

    <defs>
    <clipPath id="terminal-688787121-clip-terminal">
      <rect x="0" y="0" width="657.8" height="1023.8" />
    </clipPath>
    <clipPath id="terminal-688787121-line-0">
    <rect x="0" y="1.5" width="658.8" height="24.65"/>
            </clipPath>
<clipPath id="terminal-688787121-line-1">
    <rect x="0" y="25.9" width="658.8" height="24.65"/>
            </clipPath>
<clipPath id="terminal-688787121-line-2">
    <rect x="0" y="50.3" width="658.8" height="24.65"/>
            </clipPath>
<clipPath id="terminal-688787121-line-3">
    <rect x="0" y="74.7" width="658.8" height="24.65"/>
            </clipPath>
<clipPath id="terminal-688787121-line-4">
    <rect x="0" y="99.1" width="658.8" height="24.65"/>
            </clipPath>
<clipPath id="terminal-688787121-line-5">
    <rect x="0" y="123.5" width="658.8" height="24.65"/>
            </clipPath>
<clipPath id="terminal-688787121-line-6">
    <rect x="0" y="147.9" width="658.8" height="24.65"/>
            </clipPath>
<clipPath id="terminal-688787121-line-7">
    <rect x="0" y="172.3" width="658.8" height="24.65"/>
            </clipPath>
<clipPath id="terminal-688787121-line-8">
    <rect x="0" y="196.7" width="658.8" height="24.65"/>
            </clipPath>
<clipPath id="terminal-688787121-line-9">
    <rect x="0" y="221.1" width="658.8" height="24.65"/>
            </clipPath>
<clipPath id="terminal-688787121-line-10">
    <rect x="0" y="245.5" width="658.8" height="24.65"/>
            </clipPath>
<clipPath id="terminal-688787121-line-11">
    <rect x="0" y="269.9" width="658.8" height="24.65"/>
            </clipPath>
<clipPath id="terminal-688787121-line-12">
    <rect x="0" y="294.3" width="658.8" height="24.65"/>
            </clipPath>
<clipPath id="terminal-688787121-line-13">
    <rect x="0" y="318.7" width="658.8" height="24.65"/>
            </clipPath>
<clipPath id="terminal-688787121-line-14">
    <rect x="0" y="343.1" width="658.8" height="24.65"/>
            </clipPath>
<clipPath id="terminal-688787121-line-15">
    <rect x="0" y="367.5" width="658.8" height="24.65"/>
            </clipPath>
<clipPath id="terminal-688787121-line-16">
    <rect x="0" y="391.9" width="658.8" height="24.65"/>
            </clipPath>
<clipPath id="terminal-688787121-line-17">
    <rect x="0" y="416.3" width="658.8" height="24.65"/>
            </clipPath>
<clipPath id="terminal-688787121-line-18">
    <rect x="0" y="440.7" width="658.8" height="24.65"/>
            </clipPath>
<clipPath id="terminal-688787121-line-19">
    <rect x="0" y="465.1" width="658.8" height="24.65"/>
            </clipPath>
<clipPath id="terminal-688787121-line-20">
    <rect x="0" y="489.5" width="658.8" height="24.65"/>
            </clipPath>
<clipPath id="terminal-688787121-line-21">
    <rect x="0" y="513.9" width="658.8" height="24.65"/>
            </clipPath>
<clipPath id="terminal-688787121-line-22">
    <rect x="0" y="538.3" width="658.8" height="24.65"/>
            </clipPath>
<clipPath id="terminal-688787121-line-23">
    <rect x="0" y="562.7" width="658.8" height="24.65"/>
            </clipPath>
<clipPath id="terminal-688787121-line-24">
    <rect x="0" y="587.1" width="658.8" height="24.65"/>
            </clipPath>
<clipPath id="terminal-688787121-line-25">
    <rect x="0" y="611.5" width="658.8" height="24.65"/>
            </clipPath>
<clipPath id="terminal-688787121-line-26">
    <rect x="0" y="635.9" width="658.8" height="24.65"/>
            </clipPath>
<clipPath id="terminal-688787121-line-27">
    <rect x="0" y="660.3" width="658.8" height="24.65"/>
            </clipPath>
<clipPath id="terminal-688787121-line-28">
    <rect x="0" y="684.7" width="658.8" height="24.65"/>
            </clipPath>
<clipPath id="terminal-688787121-line-29">
    <rect x="0" y="709.1" width="658.8" height="24.65"/>
            </clipPath>
<clipPath id="terminal-688787121-line-30">
    <rect x="0" y="733.5" width="658.8" height="24.65"/>
            </clipPath>
<clipPath id="terminal-688787121-line-31">
    <rect x="0" y="757.9" width="658.8" height="24.65"/>
            </clipPath>
<clipPath id="terminal-688787121-line-32">
    <rect x="0" y="782.3" width="658.8" height="24.65"/>
            </clipPath>
<clipPath id="terminal-688787121-line-33">
    <rect x="0" y="806.7" width="658.8" height="24.65"/>
            </clipPath>
<clipPath id="terminal-688787121-line-34">
    <rect x="0" y="831.1" width="658.8" height="24.65"/>
            </clipPath>
<clipPath id="terminal-688787121-line-35">
    <rect x="0" y="855.5" width="658.8" height="24.65"/>
            </clipPath>
<clipPath id="terminal-688787121-line-36">
    <rect x="0" y="879.9" width="658.8" height="24.65"/>
            </clipPath>
<clipPath id="terminal-688787121-line-37">
    <rect x="0" y="904.3" width="658.8" height="24.65"/>
            </clipPath>
<clipPath id="terminal-688787121-line-38">
    <rect x="0" y="928.7" width="658.8" height="24.65"/>
            </clipPath>
<clipPath id="terminal-688787121-line-39">
    <rect x="0" y="953.1" width="658.8" height="24.65"/>
            </clipPath>
<clipPath id="terminal-688787121-line-40">
    <rect x="0" y="977.5" width="658.8" height="24.65"/>
            </clipPath>
    </defs>

    <rect fill="#292929" stroke="rgba(255,255,255,0.35)" stroke-width="1" x="1" y="1" width="675" height="1072.8" rx="8"/><text class="terminal-688787121-title" fill="#c5c8c6" text-anchor="middle" x="337" y="27">Dev-Dashboard</text>
            <g transform="translate(26,22)">
            <circle cx="0" cy="0" r="7" fill="#ff5f57"/>
            <circle cx="22" cy="0" r="7" fill="#febc2e"/>
            <circle cx="44" cy="0" r="7" fill="#28c840"/>
            </g>
        
    <g transform="translate(9, 41)" clip-path="url(#terminal-688787121-clip-terminal)">
    <rect fill="#3fb950" x="122" y="50.3" width="12.2" height="24.65" shape-rendering="crispEdges"/><rect fill="#47b94f" x="134.2" y="50.3" width="12.2" height="24.65" shape-rendering="crispEdges"/><rect fill="#4eb84f" x="146.4" y="50.3" width="12.2" height="24.65" shape-rendering="crispEdges"/><rect fill="#56b84e" x="158.6" y="50.3" width="12.2" height="24.65" shape-rendering="crispEdges"/><rect fill="#5db84d" x="170.8" y="50.3" width="12.2" height="24.65" shape-rendering="crispEdges"/><rect fill="#65b84d" x="183" y="50.3" width="12.2" height="24.65" shape-rendering="crispEdges"/><rect fill="#6db74c" x="195.2" y="50.3" width="12.2" height="24.65" shape-rendering="crispEdges"/><rect fill="#74b74b" x="207.4" y="50.3" width="12.2" height="24.65" shape-rendering="crispEdges"/><rect fill="#7cb74a" x="219.6" y="50.3" width="12.2" height="24.65" shape-rendering="crispEdges"/><rect fill="#83b64a" x="231.8" y="50.3" width="12.2" height="24.65" shape-rendering="crispEdges"/><rect fill="#8bb649" x="244" y="50.3" width="12.2" height="24.65" shape-rendering="crispEdges"/><rect fill="#93b648" x="256.2" y="50.3" width="12.2" height="24.65" shape-rendering="crispEdges"/><rect fill="#9ab648" x="268.4" y="50.3" width="12.2" height="24.65" shape-rendering="crispEdges"/><rect fill="#a2b547" x="280.6" y="50.3" width="12.2" height="24.65" shape-rendering="crispEdges"/><rect fill="#a9b546" x="292.8" y="50.3" width="12.2" height="24.65" shape-rendering="crispEdges"/><rect fill="#b1b546" x="305" y="50.3" width="12.2" height="24.65" shape-rendering="crispEdges"/><rect fill="#21262d" x="317.2" y="50.3" width="12.2" height="24.65" shape-rendering="crispEdges"/><rect fill="#21262d" x="329.4" y="50.3" width="12.2" height="24.65" shape-rendering="crispEdges"/><rect fill="#21262d" x="341.6" y="50.3" width="12.2" height="24.65" shape-rendering="crispEdges"/><rect fill="#21262d" x="353.8" y="50.3" width="12.2" height="24.65" shape-rendering="crispEdges"/><rect fill="#21262d" x="366" y="50.3" width="12.2" height="24.65" shape-rendering="crispEdges"/><rect fill="#21262d" x="378.2" y="50.3" width="12.2" height="24.65" shape-rendering="crispEdges"/><rect fill="#21262d" x="390.4" y="50.3" width="12.2" height="24.65" shape-rendering="crispEdges"/><rect fill="#21262d" x="402.6" y="50.3" width="12.2" height="24.65" shape-rendering="crispEdges"/><rect fill="#21262d" x="414.8" y="50.3" width="12.2" height="24.65" shape-rendering="crispEdges"/><rect fill="#21262d" x="427" y="50.3" width="12.2" height="24.65" shape-rendering="crispEdges"/><rect fill="#21262d" x="439.2" y="50.3" width="12.2" height="24.65" shape-rendering="crispEdges"/><rect fill="#21262d" x="451.4" y="50.3" width="12.2" height="24.65" shape-rendering="crispEdges"/><rect fill="#21262d" x="463.6" y="50.3" width="12.2" height="24.65" shape-rendering="crispEdges"/><rect fill="#21262d" x="475.8" y="50.3" width="12.2" height="24.65" shape-rendering="crispEdges"/><rect fill="#21262d" x="488" y="50.3" width="12.2" height="24.65" shape-rendering="crispEdges"/><rect fill="#21262d" x="500.2" y="50.3" width="12.2" height="24.65" shape-rendering="crispEdges"/><rect fill="#21262d" x="512.4" y="50.3" width="12.2" height="24.65" shape-rendering="crispEdges"/><rect fill="#21262d" x="524.6" y="50.3" width="12.2" height="24.65" shape-rendering="crispEdges"/><rect fill="#21262d" x="536.8" y="50.3" width="12.2" height="24.65" shape-rendering="crispEdges"/><rect fill="#21262d" x="549" y="50.3" width="12.2" height="24.65" shape-rendering="crispEdges"/><rect fill="#21262d" x="561.2" y="50.3" width="12.2" height="24.65" shape-rendering="crispEdges"/><rect fill="#3fb950" x="122" y="74.7" width="12.2" height="24.65" shape-rendering="crispEdges"/><rect fill="#47b94f" x="134.2" y="74.7" width="12.2" height="24.65" shape-rendering="crispEdges"/><rect fill="#4eb84f" x="146.4" y="74.7" width="12.2" height="24.65" shape-rendering="crispEdges"/><rect fill="#56b84e" x="158.6" y="74.7" width="12.2" height="24.65" shape-rendering="crispEdges"/><rect fill="#5db84d" x="170.8" y="74.7" width="12.2" height="24.65" shape-rendering="crispEdges"/><rect fill="#65b84d" x="183" y="74.7" width="12.2" height="24.65" shape-rendering="crispEdges"/><rect fill="#6db74c" x="195.2" y="74.7" width="12.2" height="24.65" shape-rendering="crispEdges"/><rect fill="#74b74b" x="207.4" y="74.7" width="12.2" height="24.65" shape-rendering="crispEdges"/><rect fill="#7cb74a" x="219.6" y="74.7" width="12.2" height="24.65" shape-rendering="crispEdges"/><rect fill="#83b64a" x="231.8" y="74.7" width="12.2" height="24.65" shape-rendering="crispEdges"/><rect fill="#8bb649" x="244" y="74.7" width="12.2" height="24.65" shape-rendering="crispEdges"/><rect fill="#93b648" x="256.2" y="74.7" width="12.2" height="24.65" shape-rendering="crispEdges"/><rect fill="#9ab648" x="268.4" y="74.7" width="12.2" height="24.65" shape-rendering="crispEdges"/><rect fill="#a2b547" x="280.6" y="74.7" width="12.2" height="24.65" shape-rendering="crispEdges"/><rect fill="#a9b546" x="292.8" y="74.7" width="12.2" height="24.65" shape-rendering="crispEdges"/><rect fill="#b1b546" x="305" y="74.7" width="12.2" height="24.65" shape-rendering="crispEdges"/><rect fill="#b8b545" x="317.2" y="74.7" width="12.2" height="24.65" shape-rendering="crispEdges"/><rect fill="#c0b444" x="329.4" y="74.7" width="12.2" height="24.65" shape-rendering="crispEdges"/><rect fill="#c8b444" x="341.6" y="74.7" width="12.2" height="24.65" shape-rendering="crispEdges"/><rect fill="#cfb443" x="353.8" y="74.7" width="12.2" height="24.65" shape-rendering="crispEdges"/><rect fill="#d7b342" x="366" y="74.7" width="12.2" height="24.65" shape-rendering="crispEdges"/><rect fill="#deb341" x="378.2" y="74.7" width="12.2" height="24.65" shape-rendering="crispEdges"/><rect fill="#e4b141" x="390.4" y="74.7" width="12.2" height="24.65" shape-rendering="crispEdges"/><rect fill="#e6ab40" x="402.6" y="74.7" width="12.2" height="24.65" shape-rendering="crispEdges"/><rect fill="#e7a540" x="414.8" y="74.7" width="12.2" height="24.65" shape-rendering="crispEdges"/><rect fill="#e99f40" x="427" y="74.7" width="12.2" height="24.65" shape-rendering="crispEdges"/><rect fill="#21262d" x="439.2" y="74.7" width="12.2" height="24.65" shape-rendering="crispEdges"/><rect fill="#21262d" x="451.4" y="74.7" width="12.2" height="24.65" shape-rendering="crispEdges"/><rect fill="#21262d" x="463.6" y="74.7" width="12.2" height="24.65" shape-rendering="crispEdges"/><rect fill="#21262d" x="475.8" y="74.7" width="12.2" height="24.65" shape-rendering="crispEdges"/><rect fill="#21262d" x="488" y="74.7" width="12.2" height="24.65" shape-rendering="crispEdges"/><rect fill="#21262d" x="500.2" y="74.7" width="12.2" height="24.65" shape-rendering="crispEdges"/><rect fill="#21262d" x="512.4" y="74.7" width="12.2" height="24.65" shape-rendering="crispEdges"/><rect fill="#21262d" x="524.6" y="74.7" width="12.2" height="24.65" shape-rendering="crispEdges"/><rect fill="#21262d" x="536.8" y="74.7" width="12.2" height="24.65" shape-rendering="crispEdges"/><rect fill="#21262d" x="549" y="74.7" width="12.2" height="24.65" shape-rendering="crispEdges"/><rect fill="#21262d" x="561.2" y="74.7" width="12.2" height="24.65" shape-rendering="crispEdges"/><rect fill="#3fb950" x="122" y="147.9" width="12.2" height="24.65" shape-rendering="crispEdges"/><rect fill="#47b94f" x="134.2" y="147.9" width="12.2" height="24.65" shape-rendering="crispEdges"/><rect fill="#4eb84f" x="146.4" y="147.9" width="12.2" height="24.65" shape-rendering="crispEdges"/><rect fill="#56b84e" x="158.6" y="147.9" width="12.2" height="24.65" shape-rendering="crispEdges"/><rect fill="#21262d" x="170.8" y="147.9" width="12.2" height="24.65" shape-rendering="crispEdges"/><rect fill="#21262d" x="183" y="147.9" width="12.2" height="24.65" shape-rendering="crispEdges"/><rect fill="#21262d" x="195.2" y="147.9" width="12.2" height="24.65" shape-rendering="crispEdges"/><rect fill="#21262d" x="207.4" y="147.9" width="12.2" height="24.65" shape-rendering="crispEdges"/><rect fill="#21262d" x="219.6" y="147.9" width="12.2" height="24.65" shape-rendering="crispEdges"/><rect fill="#21262d" x="231.8" y="147.9" width="12.2" height="24.65" shape-rendering="crispEdges"/><rect fill="#21262d" x="244" y="147.9" width="12.2" height="24.65" shape-rendering="crispEdges"/><rect fill="#21262d" x="256.2" y="147.9" width="12.2" height="24.65" shape-rendering="crispEdges"/><rect fill="#21262d" x="268.4" y="147.9" width="12.2" height="24.65" shape-rendering="crispEdges"/><rect fill="#21262d" x="280.6" y="147.9" width="12.2" height="24.65" shape-rendering="crispEdges"/><rect fill="#21262d" x="292.8" y="147.9" width="12.2" height="24.65" shape-rendering="crispEdges"/><rect fill="#21262d" x="305" y="147.9" width="12.2" height="24.65" shape-rendering="crispEdges"/><rect fill="#21262d" x="317.2" y="147.9" width="12.2" height="24.65" shape-rendering="crispEdges"/><rect fill="#21262d" x="329.4" y="147.9" width="12.2" height="24.65" shape-rendering="crispEdges"/><rect fill="#21262d" x="341.6" y="147.9" width="12.2" height="24.65" shape-rendering="crispEdges"/><rect fill="#21262d" x="353.8" y="147.9" width="12.2" height="24.65" shape-rendering="crispEdges"/><rect fill="#21262d" x="366" y="147.9" width="12.2" height="24.65" shape-rendering="crispEdges"/><rect fill="#21262d" x="378.2" y="147.9" width="12.2" height="24.65" shape-rendering="crispEdges"/><rect fill="#21262d" x="390.4" y="147.9" width="12.2" height="24.65" shape-rendering="crispEdges"/><rect fill="#21262d" x="402.6" y="147.9" width="12.2" height="24.65" shape-rendering="crispEdges"/><rect fill="#21262d" x="414.8" y="147.9" width="12.2" height="24.65" shape-rendering="crispEdges"/><rect fill="#21262d" x="427" y="147.9" width="12.2" height="24.65" shape-rendering="crispEdges"/><rect fill="#21262d" x="439.2" y="147.9" width="12.2" height="24.65" shape-rendering="crispEdges"/><rect fill="#21262d" x="451.4" y="147.9" width="12.2" height="24.65" shape-rendering="crispEdges"/><rect fill="#21262d" x="463.6" y="147.9" width="12.2" height="24.65" shape-rendering="crispEdges"/><rect fill="#21262d" x="475.8" y="147.9" width="12.2" height="24.65" shape-rendering="crispEdges"/><rect fill="#21262d" x="488" y="147.9" width="12.2" height="24.65" shape-rendering="crispEdges"/><rect fill="#21262d" x="500.2" y="147.9" width="12.2" height="24.65" shape-rendering="crispEdges"/><rect fill="#21262d" x="512.4" y="147.9" width="12.2" height="24.65" shape-rendering="crispEdges"/><rect fill="#21262d" x="524.6" y="147.9" width="12.2" height="24.65" shape-rendering="crispEdges"/><rect fill="#21262d" x="536.8" y="147.9" width="12.2" height="24.65" shape-rendering="crispEdges"/><rect fill="#21262d" x="549" y="147.9" width="12.2" height="24.65" shape-rendering="crispEdges"/><rect fill="#21262d" x="561.2" y="147.9" width="12.2" height="24.65" shape-rendering="crispEdges"/><rect fill="#3fb950" x="122" y="172.3" width="12.2" height="24.65" shape-rendering="crispEdges"/><rect fill="#47b94f" x="134.2" y="172.3" width="12.2" height="24.65" shape-rendering="crispEdges"/><rect fill="#4eb84f" x="146.4" y="172.3" width="12.2" height="24.65" shape-rendering="crispEdges"/><rect fill="#56b84e" x="158.6" y="172.3" width="12.2" height="24.65" shape-rendering="crispEdges"/><rect fill="#5db84d" x="170.8" y="172.3" width="12.2" height="24.65" shape-rendering="crispEdges"/><rect fill="#65b84d" x="183" y="172.3" width="12.2" height="24.65" shape-rendering="crispEdges"/><rect fill="#6db74c" x="195.2" y="172.3" width="12.2" height="24.65" shape-rendering="crispEdges"/><rect fill="#74b74b" x="207.4" y="172.3" width="12.2" height="24.65" shape-rendering="crispEdges"/><rect fill="#7cb74a" x="219.6" y="172.3" width="12.2" height="24.65" shape-rendering="crispEdges"/><rect fill="#83b64a" x="231.8" y="172.3" width="12.2" height="24.65" shape-rendering="crispEdges"/><rect fill="#8bb649" x="244" y="172.3" width="12.2" height="24.65" shape-rendering="crispEdges"/><rect fill="#93b648" x="256.2" y="172.3" width="12.2" height="24.65" shape-rendering="crispEdges"/><rect fill="#9ab648" x="268.4" y="172.3" width="12.2" height="24.65" shape-rendering="crispEdges"/><rect fill="#a2b547" x="280.6" y="172.3" width="12.2" height="24.65" shape-rendering="crispEdges"/><rect fill="#a9b546" x="292.8" y="172.3" width="12.2" height="24.65" shape-rendering="crispEdges"/><rect fill="#b1b546" x="305" y="172.3" width="12.2" height="24.65" shape-rendering="crispEdges"/><rect fill="#b8b545" x="317.2" y="172.3" width="12.2" height="24.65" shape-rendering="crispEdges"/><rect fill="#c0b444" x="329.4" y="172.3" width="12.2" height="24.65" shape-rendering="crispEdges"/><rect fill="#c8b444" x="341.6" y="172.3" width="12.2" height="24.65" shape-rendering="crispEdges"/><rect fill="#cfb443" x="353.8" y="172.3" width="12.2" height="24.65" shape-rendering="crispEdges"/><rect fill="#d7b342" x="366" y="172.3" width="12.2" height="24.65" shape-rendering="crispEdges"/><rect fill="#deb341" x="378.2" y="172.3" width="12.2" height="24.65" shape-rendering="crispEdges"/><rect fill="#e4b141" x="390.4" y="172.3" width="12.2" height="24.65" shape-rendering="crispEdges"/><rect fill="#e6ab40" x="402.6" y="172.3" width="12.2" height="24.65" shape-rendering="crispEdges"/><rect fill="#e7a540" x="414.8" y="172.3" width="12.2" height="24.65" shape-rendering="crispEdges"/><rect fill="#e99f40" x="427" y="172.3" width="12.2" height="24.65" shape-rendering="crispEdges"/><rect fill="#eb993f" x="439.2" y="172.3" width="12.2" height="24.65" shape-rendering="crispEdges"/><rect fill="#ed933f" x="451.4" y="172.3" width="12.2" height="24.65" shape-rendering="crispEdges"/><rect fill="#ef8d3e" x="463.6" y="172.3" width="12.2" height="24.65" shape-rendering="crispEdges"/><rect fill="#f0863e" x="475.8" y="172.3" width="12.2" height="24.65" shape-rendering="crispEdges"/><rect fill="#f17f40" x="488" y="172.3" width="12.2" height="24.65" shape-rendering="crispEdges"/><rect fill="#f27741" x="500.2" y="172.3" width="12.2" height="24.65" shape-rendering="crispEdges"/><rect fill="#f47043" x="512.4" y="172.3" width="12.2" height="24.65" shape-rendering="crispEdges"/><rect fill="#f56844" x="524.6" y="172.3" width="12.2" height="24.65" shape-rendering="crispEdges"/><rect fill="#21262d" x="536.8" y="172.3" width="12.2" height="24.65" shape-rendering="crispEdges"/><rect fill="#21262d" x="549" y="172.3" width="12.2" height="24.65" shape-rendering="crispEdges"/><rect fill="#21262d" x="561.2" y="172.3" width="12.2" height="24.65" shape-rendering="crispEdges"/><rect fill="#3fb950" x="122" y="245.5" width="12.2" height="24.65" shape-rendering="crispEdges"/><rect fill="#47b94f" x="134.2" y="245.5" width="12.2" height="24.65" shape-rendering="crispEdges"/><rect fill="#4eb84f" x="146.4" y="245.5" width="12.2" height="24.65" shape-rendering="crispEdges"/><rect fill="#56b84e" x="158.6" y="245.5" width="12.2" height="24.65" shape-rendering="crispEdges"/><rect fill="#5db84d" x="170.8" y="245.5" width="12.2" height="24.65" shape-rendering="crispEdges"/><rect fill="#65b84d" x="183" y="245.5" width="12.2" height="24.65" shape-rendering="crispEdges"/><rect fill="#6db74c" x="195.2" y="245.5" width="12.2" height="24.65" shape-rendering="crispEdges"/><rect fill="#74b74b" x="207.4" y="245.5" width="12.2" height="24.65" shape-rendering="crispEdges"/><rect fill="#7cb74a" x="219.6" y="245.5" width="12.2" height="24.65" shape-rendering="crispEdges"/><rect fill="#83b64a" x="231.8" y="245.5" width="12.2" height="24.65" shape-rendering="crispEdges"/><rect fill="#8bb649" x="244" y="245.5" width="12.2" height="24.65" shape-rendering="crispEdges"/><rect fill="#93b648" x="256.2" y="245.5" width="12.2" height="24.65" shape-rendering="crispEdges"/><rect fill="#9ab648" x="268.4" y="245.5" width="12.2" height="24.65" shape-rendering="crispEdges"/><rect fill="#21262d" x="280.6" y="245.5" width="12.2" height="24.65" shape-rendering="crispEdges"/><rect fill="#21262d" x="292.8" y="245.5" width="12.2" height="24.65" shape-rendering="crispEdges"/><rect fill="#21262d" x="305" y="245.5" width="12.2" height="24.65" shape-rendering="crispEdges"/><rect fill="#21262d" x="317.2" y="245.5" width="12.2" height="24.65" shape-rendering="crispEdges"/><rect fill="#21262d" x="329.4" y="245.5" width="12.2" height="24.65" shape-rendering="crispEdges"/><rect fill="#21262d" x="341.6" y="245.5" width="12.2" height="24.65" shape-rendering="crispEdges"/><rect fill="#21262d" x="353.8" y="245.5" width="12.2" height="24.65" shape-rendering="crispEdges"/><rect fill="#21262d" x="366" y="245.5" width="12.2" height="24.65" shape-rendering="crispEdges"/><rect fill="#21262d" x="378.2" y="245.5" width="12.2" height="24.65" shape-rendering="crispEdges"/><rect fill="#21262d" x="390.4" y="245.5" width="12.2" height="24.65" shape-rendering="crispEdges"/><rect fill="#21262d" x="402.6" y="245.5" width="12.2" height="24.65" shape-rendering="crispEdges"/><rect fill="#21262d" x="414.8" y="245.5" width="12.2" height="24.65" shape-rendering="crispEdges"/><rect fill="#21262d" x="427" y="245.5" width="12.2" height="24.65" shape-rendering="crispEdges"/><rect fill="#21262d" x="439.2" y="245.5" width="12.2" height="24.65" shape-rendering="crispEdges"/><rect fill="#21262d" x="451.4" y="245.5" width="12.2" height="24.65" shape-rendering="crispEdges"/><rect fill="#21262d" x="463.6" y="245.5" width="12.2" height="24.65" shape-rendering="crispEdges"/><rect fill="#21262d" x="475.8" y="245.5" width="12.2" height="24.65" shape-rendering="crispEdges"/><rect fill="#21262d" x="488" y="245.5" width="12.2" height="24.65" shape-rendering="crispEdges"/><rect fill="#21262d" x="500.2" y="245.5" width="12.2" height="24.65" shape-rendering="crispEdges"/><rect fill="#21262d" x="512.4" y="245.5" width="12.2" height="24.65" shape-rendering="crispEdges"/><rect fill="#21262d" x="524.6" y="245.5" width="12.2" height="24.65" shape-rendering="crispEdges"/><rect fill="#21262d" x="536.8" y="245.5" width="12.2" height="24.65" shape-rendering="crispEdges"/><rect fill="#21262d" x="549" y="245.5" width="12.2" height="24.65" shape-rendering="crispEdges"/><rect fill="#21262d" x="561.2" y="245.5" width="12.2" height="24.65" shape-rendering="crispEdges"/>
    <g class="terminal-688787121-matrix">
    <text class="terminal-688787121-r1" x="0" y="20" textLength="61" clip-path="url(#terminal-688787121-line-0)">USAGE</text><text class="terminal-688787121-r2" x="61" y="20" textLength="207.4" clip-path="url(#terminal-688787121-line-0)">&#160;&#160;fetched&#160;12s&#160;ago</text><text class="terminal-688787121-r3" x="658.8" y="20" textLength="12.2" clip-path="url(#terminal-688787121-line-0)">
</text><text class="terminal-688787121-r4" x="0" y="44.4" textLength="24.4" clip-path="url(#terminal-688787121-line-1)">●&#160;</text><text class="terminal-688787121-r5" x="24.4" y="44.4" textLength="109.8" clip-path="url(#terminal-688787121-line-1)">Anthropic</text><text class="terminal-688787121-r3" x="658.8" y="44.4" textLength="12.2" clip-path="url(#terminal-688787121-line-1)">
</text><text class="terminal-688787121-r6" x="0" y="68.8" textLength="122" clip-path="url(#terminal-688787121-line-2)">5h&#160;&#160;&#160;&#160;&#160;&#160;&#160;&#160;</text><text class="terminal-688787121-r8" x="329.4" y="68.8" textLength="12.2" clip-path="url(#terminal-688787121-line-2)">4</text><text class="terminal-688787121-r8" x="341.6" y="68.8" textLength="12.2" clip-path="url(#terminal-688787121-line-2)">2</text><text class="terminal-688787121-r8" x="353.8" y="68.8" textLength="12.2" clip-path="url(#terminal-688787121-line-2)">%</text><text class="terminal-688787121-r9" x="585.6" y="68.8" textLength="73.2" clip-path="url(#terminal-688787121-line-2)">&#160;2h24m</text><text class="terminal-688787121-r3" x="658.8" y="68.8" textLength="12.2" clip-path="url(#terminal-688787121-line-2)">
</text><text class="terminal-688787121-r6" x="0" y="93.2" textLength="122" clip-path="url(#terminal-688787121-line-3)">7d&#160;&#160;&#160;&#160;&#160;&#160;&#160;&#160;</text><text class="terminal-688787121-r7" x="329.4" y="93.2" textLength="12.2" clip-path="url(#terminal-688787121-line-3)">7</text><text class="terminal-688787121-r7" x="341.6" y="93.2" textLength="12.2" clip-path="url(#terminal-688787121-line-3)">1</text><text class="terminal-688787121-r7" x="353.8" y="93.2" textLength="12.2" clip-path="url(#terminal-688787121-line-3)">%</text><text class="terminal-688787121-r7" x="378.2" y="93.2" textLength="12.2" clip-path="url(#terminal-688787121-line-3)">&gt;</text><text class="terminal-688787121-r9" x="585.6" y="93.2" textLength="73.2" clip-path="url(#terminal-688787121-line-3)">&#160;2d23h</text><text class="terminal-688787121-r3" x="658.8" y="93.2" textLength="12.2" clip-path="url(#terminal-688787121-line-3)">
</text><text class="terminal-688787121-r3" x="658.8" y="117.6" textLength="12.2" clip-path="url(#terminal-688787121-line-4)">
</text><text class="terminal-688787121-r11" x="0" y="142" textLength="24.4" clip-path="url(#terminal-688787121-line-5)">●&#160;</text><text class="terminal-688787121-r12" x="24.4" y="142" textLength="61" clip-path="url(#terminal-688787121-line-5)">Codex</text><text class="terminal-688787121-r3" x="658.8" y="142" textLength="12.2" clip-path="url(#terminal-688787121-line-5)">
</text><text class="terminal-688787121-r6" x="0" y="166.4" textLength="122" clip-path="url(#terminal-688787121-line-6)">5h&#160;&#160;&#160;&#160;&#160;&#160;&#160;&#160;</text><text class="terminal-688787121-r13" x="329.4" y="166.4" textLength="12.2" clip-path="url(#terminal-688787121-line-6)">1</text><text class="terminal-688787121-r13" x="341.6" y="166.4" textLength="12.2" clip-path="url(#terminal-688787121-line-6)">2</text><text class="terminal-688787121-r13" x="353.8" y="166.4" textLength="12.2" clip-path="url(#terminal-688787121-line-6)">%</text><text class="terminal-688787121-r9" x="585.6" y="166.4" textLength="73.2" clip-path="url(#terminal-688787121-line-6)">&#160;3h59m</text><text class="terminal-688787121-r3" x="658.8" y="166.4" textLength="12.2" clip-path="url(#terminal-688787121-line-6)">
</text><text class="terminal-688787121-r6" x="0" y="190.8" textLength="122" clip-path="url(#terminal-688787121-line-7)">7d&#160;&#160;&#160;&#160;&#160;&#160;&#160;&#160;</text><text class="terminal-688787121-r7" x="305" y="190.8" textLength="12.2" clip-path="url(#terminal-688787121-line-7)">&lt;</text><text class="terminal-688787121-r7" x="329.4" y="190.8" textLength="12.2" clip-path="url(#terminal-688787121-line-7)">9</text><text class="terminal-688787121-r7" x="341.6" y="190.8" textLength="12.2" clip-path="url(#terminal-688787121-line-7)">3</text><text class="terminal-688787121-r7" x="353.8" y="190.8" textLength="12.2" clip-path="url(#terminal-688787121-line-7)">%</text><text class="terminal-688787121-r15" x="585.6" y="190.8" textLength="73.2" clip-path="url(#terminal-688787121-line-7)">&#160;&#160;&#160;39m</text><text class="terminal-688787121-r3" x="658.8" y="190.8" textLength="12.2" clip-path="url(#terminal-688787121-line-7)">
</text><text class="terminal-688787121-r3" x="658.8" y="215.2" textLength="12.2" clip-path="url(#terminal-688787121-line-8)">
</text><text class="terminal-688787121-r16" x="0" y="239.6" textLength="24.4" clip-path="url(#terminal-688787121-line-9)">●&#160;</text><text class="terminal-688787121-r17" x="24.4" y="239.6" textLength="73.2" clip-path="url(#terminal-688787121-line-9)">Cursor</text><text class="terminal-688787121-r3" x="658.8" y="239.6" textLength="12.2" clip-path="url(#terminal-688787121-line-9)">
</text><text class="terminal-688787121-r6" x="0" y="264" textLength="122" clip-path="url(#terminal-688787121-line-10)">cursor&#160;mo&#160;</text><text class="terminal-688787121-r9" x="292.8" y="264" textLength="12.2" clip-path="url(#terminal-688787121-line-10)">&lt;</text><text class="terminal-688787121-r9" x="305" y="264" textLength="12.2" clip-path="url(#terminal-688787121-line-10)">&lt;</text><text class="terminal-688787121-r18" x="329.4" y="264" textLength="12.2" clip-path="url(#terminal-688787121-line-10)">3</text><text class="terminal-688787121-r18" x="341.6" y="264" textLength="12.2" clip-path="url(#terminal-688787121-line-10)">4</text><text class="terminal-688787121-r18" x="353.8" y="264" textLength="12.2" clip-path="url(#terminal-688787121-line-10)">%</text><text class="terminal-688787121-r9" x="585.6" y="264" textLength="73.2" clip-path="url(#terminal-688787121-line-10)">10d23h</text><text class="terminal-688787121-r3" x="658.8" y="264" textLength="12.2" clip-path="url(#terminal-688787121-line-10)">
</text><text class="terminal-688787121-r3" x="658.8" y="288.4" textLength="12.2" clip-path="url(#terminal-688787121-line-11)">
</text><text class="terminal-688787121-r19" x="0" y="312.8" textLength="658.8" clip-path="url(#terminal-688787121-line-12)">──────────────────────────────────────────────────────</text><text class="terminal-688787121-r3" x="658.8" y="312.8" textLength="12.2" clip-path="url(#terminal-688787121-line-12)">
</text><text class="terminal-688787121-r1" x="0" y="337.2" textLength="85.4" clip-path="url(#terminal-688787121-line-13)">MY&#160;PRS&#160;</text><text class="terminal-688787121-r1" x="85.4" y="337.2" textLength="12.2" clip-path="url(#terminal-688787121-line-13)">4</text><text class="terminal-688787121-r2" x="97.6" y="337.2" textLength="195.2" clip-path="url(#terminal-688787121-line-13)">&#160;&#160;fetched&#160;4s&#160;ago</text><text class="terminal-688787121-r3" x="658.8" y="337.2" textLength="12.2" clip-path="url(#terminal-688787121-line-13)">
</text><text class="terminal-688787121-r3" x="658.8" y="361.6" textLength="12.2" clip-path="url(#terminal-688787121-line-14)">
</text><text class="terminal-688787121-r20" x="0" y="386" textLength="36.6" clip-path="url(#terminal-688787121-line-15)">api</text><text class="terminal-688787121-r2" x="36.6" y="386" textLength="73.2" clip-path="url(#terminal-688787121-line-15)">&#160;&#160;acme</text><text class="terminal-688787121-r3" x="658.8" y="386" textLength="12.2" clip-path="url(#terminal-688787121-line-15)">
</text><text class="terminal-688787121-r21" x="0" y="410.4" textLength="24.4" clip-path="url(#terminal-688787121-line-16)">┃&#160;</text><text class="terminal-688787121-r22" x="24.4" y="410.4" textLength="195.2" clip-path="url(#terminal-688787121-line-16)">stack&#160;#12&#160;→&#160;main</text><text class="terminal-688787121-r3" x="658.8" y="410.4" textLength="12.2" clip-path="url(#terminal-688787121-line-16)">
</text><text class="terminal-688787121-r21" x="0" y="434.8" textLength="24.4" clip-path="url(#terminal-688787121-line-17)">┃&#160;</text><text class="terminal-688787121-r23" x="24.4" y="434.8" textLength="61" clip-path="url(#terminal-688787121-line-17)">#207&#160;</text><text class="terminal-688787121-r2" x="85.4" y="434.8" textLength="134.2" clip-path="url(#terminal-688787121-line-17)">feat(api):&#160;</text><text class="terminal-688787121-r24" x="219.6" y="434.8" textLength="292.8" clip-path="url(#terminal-688787121-line-17)">expose&#160;limits&#160;in&#160;headers</text><text class="terminal-688787121-r3" x="658.8" y="434.8" textLength="12.2" clip-path="url(#terminal-688787121-line-17)">
</text><text class="terminal-688787121-r21" x="0" y="459.2" textLength="24.4" clip-path="url(#terminal-688787121-line-18)">┃&#160;</text><text class="terminal-688787121-r25" x="36.6" y="459.2" textLength="48.8" clip-path="url(#terminal-688787121-line-18)">●ci1</text><text class="terminal-688787121-r25" x="109.8" y="459.2" textLength="146.4" clip-path="url(#terminal-688787121-line-18)">needs&#160;review</text><text class="terminal-688787121-r26" x="268.4" y="459.2" textLength="12.2" clip-path="url(#terminal-688787121-line-18)">✎</text><text class="terminal-688787121-r26" x="280.6" y="459.2" textLength="36.6" clip-path="url(#terminal-688787121-line-18)">sam</text><text class="terminal-688787121-r22" x="341.6" y="459.2" textLength="24.4" clip-path="url(#terminal-688787121-line-18)">⚑2</text><text class="terminal-688787121-r3" x="658.8" y="459.2" textLength="12.2" clip-path="url(#terminal-688787121-line-18)">
</text><text class="terminal-688787121-r21" x="0" y="483.6" textLength="24.4" clip-path="url(#terminal-688787121-line-19)">┃&#160;</text><text class="terminal-688787121-r23" x="24.4" y="483.6" textLength="61" clip-path="url(#terminal-688787121-line-19)">#204&#160;</text><text class="terminal-688787121-r2" x="85.4" y="483.6" textLength="134.2" clip-path="url(#terminal-688787121-line-19)">feat(api):&#160;</text><text class="terminal-688787121-r24" x="219.6" y="483.6" textLength="183" clip-path="url(#terminal-688787121-line-19)">add&#160;rate&#160;limits</text><text class="terminal-688787121-r3" x="658.8" y="483.6" textLength="12.2" clip-path="url(#terminal-688787121-line-19)">
</text><text class="terminal-688787121-r21" x="0" y="508" textLength="24.4" clip-path="url(#terminal-688787121-line-20)">┃&#160;</text><text class="terminal-688787121-r27" x="36.6" y="508" textLength="36.6" clip-path="url(#terminal-688787121-line-20)">✓ci</text><text class="terminal-688787121-r28" x="97.6" y="508" textLength="97.6" clip-path="url(#terminal-688787121-line-20)">approved</text><text class="terminal-688787121-r27" x="207.4" y="508" textLength="12.2" clip-path="url(#terminal-688787121-line-20)">✓</text><text class="terminal-688787121-r27" x="219.6" y="508" textLength="48.8" clip-path="url(#terminal-688787121-line-20)">dana</text><text class="terminal-688787121-r2" x="292.8" y="508" textLength="61" clip-path="url(#terminal-688787121-line-20)">bot✎1</text><text class="terminal-688787121-r3" x="658.8" y="508" textLength="12.2" clip-path="url(#terminal-688787121-line-20)">
</text><text class="terminal-688787121-r21" x="0" y="532.4" textLength="24.4" clip-path="url(#terminal-688787121-line-21)">┃&#160;</text><text class="terminal-688787121-r2" x="24.4" y="532.4" textLength="61" clip-path="url(#terminal-688787121-line-21)">#201&#160;</text><text class="terminal-688787121-r2" x="85.4" y="532.4" textLength="97.6" clip-path="url(#terminal-688787121-line-21)">✓merged&#160;</text><text class="terminal-688787121-r2" x="183" y="532.4" textLength="183" clip-path="url(#terminal-688787121-line-21)">refactor(api):&#160;</text><text class="terminal-688787121-r2" x="366" y="532.4" textLength="195.2" clip-path="url(#terminal-688787121-line-21)">split&#160;the&#160;router</text><text class="terminal-688787121-r3" x="658.8" y="532.4" textLength="12.2" clip-path="url(#terminal-688787121-line-21)">
</text><text class="terminal-688787121-r3" x="658.8" y="556.8" textLength="12.2" clip-path="url(#terminal-688787121-line-22)">
</text><text class="terminal-688787121-r20" x="0" y="581.2" textLength="36.6" clip-path="url(#terminal-688787121-line-23)">web</text><text class="terminal-688787121-r2" x="36.6" y="581.2" textLength="73.2" clip-path="url(#terminal-688787121-line-23)">&#160;&#160;acme</text><text class="terminal-688787121-r3" x="658.8" y="581.2" textLength="12.2" clip-path="url(#terminal-688787121-line-23)">
</text><text class="terminal-688787121-r23" x="0" y="605.6" textLength="48.8" clip-path="url(#terminal-688787121-line-24)">#88&#160;</text><text class="terminal-688787121-r2" x="48.8" y="605.6" textLength="122" clip-path="url(#terminal-688787121-line-24)">fix(web):&#160;</text><text class="terminal-688787121-r24" x="170.8" y="605.6" textLength="439.2" clip-path="url(#terminal-688787121-line-24)">keep&#160;the&#160;sidebar&#160;open&#160;after&#160;a&#160;reload</text><text class="terminal-688787121-r3" x="658.8" y="605.6" textLength="12.2" clip-path="url(#terminal-688787121-line-24)">
</text><text class="terminal-688787121-r29" x="12.2" y="630" textLength="48.8" clip-path="url(#terminal-688787121-line-25)">✗ci1</text><text class="terminal-688787121-r29" x="85.4" y="630" textLength="85.4" clip-path="url(#terminal-688787121-line-25)">changes</text><text class="terminal-688787121-r30" x="183" y="630" textLength="12.2" clip-path="url(#terminal-688787121-line-25)">✗</text><text class="terminal-688787121-r30" x="195.2" y="630" textLength="36.6" clip-path="url(#terminal-688787121-line-25)">lee</text><text class="terminal-688787121-r22" x="256.2" y="630" textLength="24.4" clip-path="url(#terminal-688787121-line-25)">⚑1</text><text class="terminal-688787121-r30" x="305" y="630" textLength="134.2" clip-path="url(#terminal-688787121-line-25)">test&#160;(3.13)</text><text class="terminal-688787121-r3" x="658.8" y="630" textLength="12.2" clip-path="url(#terminal-688787121-line-25)">
</text><text class="terminal-688787121-r3" x="658.8" y="654.4" textLength="12.2" clip-path="url(#terminal-688787121-line-26)">
</text><text class="terminal-688787121-r23" x="0" y="678.8" textLength="48.8" clip-path="url(#terminal-688787121-line-27)">#91&#160;</text><text class="terminal-688787121-r2" x="48.8" y="678.8" textLength="73.2" clip-path="url(#terminal-688787121-line-27)">docs:&#160;</text><text class="terminal-688787121-r2" x="122" y="678.8" textLength="280.6" clip-path="url(#terminal-688787121-line-27)">explain&#160;the&#160;deploy&#160;flow</text><text class="terminal-688787121-r3" x="658.8" y="678.8" textLength="12.2" clip-path="url(#terminal-688787121-line-27)">
</text><text class="terminal-688787121-r27" x="12.2" y="703.2" textLength="36.6" clip-path="url(#terminal-688787121-line-28)">✓ci</text><text class="terminal-688787121-r2" x="73.2" y="703.2" textLength="61" clip-path="url(#terminal-688787121-line-28)">draft</text><text class="terminal-688787121-r25" x="158.6" y="703.2" textLength="146.4" clip-path="url(#terminal-688787121-line-28)">needs&#160;review</text><text class="terminal-688787121-r25" x="329.4" y="703.2" textLength="85.4" clip-path="url(#terminal-688787121-line-28)">↓behind</text><text class="terminal-688787121-r3" x="658.8" y="703.2" textLength="12.2" clip-path="url(#terminal-688787121-line-28)">
</text><text class="terminal-688787121-r3" x="658.8" y="727.6" textLength="12.2" clip-path="url(#terminal-688787121-line-29)">
</text><text class="terminal-688787121-r19" x="0" y="752" textLength="658.8" clip-path="url(#terminal-688787121-line-30)">──────────────────────────────────────────────────────</text><text class="terminal-688787121-r3" x="658.8" y="752" textLength="12.2" clip-path="url(#terminal-688787121-line-30)">
</text><text class="terminal-688787121-r1" x="0" y="776.4" textLength="207.4" clip-path="url(#terminal-688787121-line-31)">REVIEW&#160;REQUESTED&#160;</text><text class="terminal-688787121-r1" x="207.4" y="776.4" textLength="12.2" clip-path="url(#terminal-688787121-line-31)">2</text><text class="terminal-688787121-r3" x="658.8" y="776.4" textLength="12.2" clip-path="url(#terminal-688787121-line-31)">
</text><text class="terminal-688787121-r3" x="658.8" y="800.8" textLength="12.2" clip-path="url(#terminal-688787121-line-32)">
</text><text class="terminal-688787121-r23" x="0" y="825.2" textLength="61" clip-path="url(#terminal-688787121-line-33)">#312&#160;</text><text class="terminal-688787121-r2" x="61" y="825.2" textLength="134.2" clip-path="url(#terminal-688787121-line-33)">feat(cli):&#160;</text><text class="terminal-688787121-r24" x="195.2" y="825.2" textLength="207.4" clip-path="url(#terminal-688787121-line-33)">add&#160;--json&#160;output</text><text class="terminal-688787121-r3" x="658.8" y="825.2" textLength="12.2" clip-path="url(#terminal-688787121-line-33)">
</text><text class="terminal-688787121-r2" x="0" y="849.6" textLength="36.6" clip-path="url(#terminal-688787121-line-34)">cli</text><text class="terminal-688787121-r25" x="48.8" y="849.6" textLength="61" clip-path="url(#terminal-688787121-line-34)">@dana</text><text class="terminal-688787121-r2" x="122" y="849.6" textLength="61" clip-path="url(#terminal-688787121-line-34)">2h00m</text><text class="terminal-688787121-r3" x="658.8" y="849.6" textLength="12.2" clip-path="url(#terminal-688787121-line-34)">
</text><text class="terminal-688787121-r27" x="12.2" y="874" textLength="36.6" clip-path="url(#terminal-688787121-line-35)">✓ci</text><text class="terminal-688787121-r25" x="73.2" y="874" textLength="146.4" clip-path="url(#terminal-688787121-line-35)">needs&#160;review</text><text class="terminal-688787121-r27" x="231.8" y="874" textLength="12.2" clip-path="url(#terminal-688787121-line-35)">✓</text><text class="terminal-688787121-r27" x="244" y="874" textLength="36.6" clip-path="url(#terminal-688787121-line-35)">sam</text><text class="terminal-688787121-r3" x="658.8" y="874" textLength="12.2" clip-path="url(#terminal-688787121-line-35)">
</text><text class="terminal-688787121-r3" x="658.8" y="898.4" textLength="12.2" clip-path="url(#terminal-688787121-line-36)">
</text><text class="terminal-688787121-r23" x="0" y="922.8" textLength="48.8" clip-path="url(#terminal-688787121-line-37)">#95&#160;</text><text class="terminal-688787121-r2" x="48.8" y="922.8" textLength="158.6" clip-path="url(#terminal-688787121-line-37)">chore(deps):&#160;</text><text class="terminal-688787121-r24" x="207.4" y="922.8" textLength="183" clip-path="url(#terminal-688787121-line-37)">bump&#160;rich&#160;to&#160;14</text><text class="terminal-688787121-r3" x="658.8" y="922.8" textLength="12.2" clip-path="url(#terminal-688787121-line-37)">
</text><text class="terminal-688787121-r2" x="0" y="947.2" textLength="36.6" clip-path="url(#terminal-688787121-line-38)">web</text><text class="terminal-688787121-r25" x="48.8" y="947.2" textLength="48.8" clip-path="url(#terminal-688787121-line-38)">@lee</text><text class="terminal-688787121-r2" x="109.8" y="947.2" textLength="61" clip-path="url(#terminal-688787121-line-38)">1d02h</text><text class="terminal-688787121-r21" x="170.8" y="947.2" textLength="170.8" clip-path="url(#terminal-688787121-line-38)">&#160;&#160;re-requested</text><text class="terminal-688787121-r3" x="658.8" y="947.2" textLength="12.2" clip-path="url(#terminal-688787121-line-38)">
</text><text class="terminal-688787121-r25" x="12.2" y="971.6" textLength="48.8" clip-path="url(#terminal-688787121-line-39)">●ci1</text><text class="terminal-688787121-r25" x="85.4" y="971.6" textLength="146.4" clip-path="url(#terminal-688787121-line-39)">needs&#160;review</text><text class="terminal-688787121-r3" x="658.8" y="971.6" textLength="12.2" clip-path="url(#terminal-688787121-line-39)">
</text><text class="terminal-688787121-r3" x="658.8" y="996" textLength="12.2" clip-path="url(#terminal-688787121-line-40)">
</text><text class="terminal-688787121-r2" x="0" y="1020.4" textLength="500.2" clip-path="url(#terminal-688787121-line-41)">16:05:46&#160;·&#160;every&#160;60s&#160;·&#160;r&#160;refresh&#160;·&#160;q&#160;quit</text><text class="terminal-688787121-r3" x="658.8" y="1020.4" textLength="12.2" clip-path="url(#terminal-688787121-line-41)">
</text>
    </g>
    </g>
</svg>
